<?xml version="1.0" standalone="no"?>
<!DOCTYPE svg PUBLIC "-//W3C//DTD SVG 20010904//EN"
 "http://www.w3.org/TR/2001/REC-SVG-20010904/DTD/svg10.dtd">
<svg version="1.0" xmlns="http://www.w3.org/2000/svg"
 width="1136.000000pt" height="1024.000000pt" viewBox="0 0 1136.000000 1024.000000"
 preserveAspectRatio="xMidYMid meet">

<g transform="translate(0.000000,1024.000000) scale(0.100000,-0.100000)"
fill="#000000" stroke="none">
<path d="M5035 10229 c-227 -33 -413 -200 -470 -424 -13 -50 -15 -156 -15
-667 l0 -608 -1758 0 c-1159 0 -1779 -4 -1818 -10 -216 -38 -387 -114 -553
-247 -235 -187 -384 -475 -411 -792 -8 -87 -10 -834 -8 -2446 4 -2570 -2
-2340 68 -2550 106 -317 386 -595 705 -699 171 -56 192 -58 620 -62 448 -5
458 -7 518 -74 25 -26 39 -55 48 -96 12 -55 10 -71 -51 -403 -35 -190 -72
-391 -82 -446 -26 -145 -33 -296 -18 -383 14 -88 68 -200 113 -238 116 -98
286 -102 491 -11 89 39 62 23 1261 747 550 332 1043 625 1095 651 222 111 545
197 824 219 77 6 605 10 1318 10 1156 0 1193 1 1289 20 463 95 812 456 894
927 13 72 15 246 15 1104 l0 1018 127 -90 c200 -142 285 -183 436 -209 187
-33 371 68 461 252 36 74 75 206 77 262 1 27 2 26 11 -13 l10 -44 18 40 c23
53 82 110 139 137 41 19 69 22 271 26 196 5 234 8 297 28 146 46 274 157 342
297 59 123 56 -11 56 2235 0 1975 -1 2068 -18 2124 -63 203 -191 333 -397 402
-53 18 -155 19 -2950 20 -1618 1 -2921 -2 -2955 -7z m2188 -3982 c102 -48 161
-143 161 -262 0 -119 -57 -210 -162 -262 l-57 -28 -2625 0 c-2502 0 -2627 1
-2672 18 -135 52 -205 235 -144 381 30 73 119 147 201 167 17 4 1207 6 2645 6
2481 -2 2617 -3 2653 -20z m-1708 -1681 c52 -24 111 -81 142 -138 14 -25 18
-55 18 -128 0 -112 -18 -155 -87 -214 -82 -71 48 -67 -1913 -64 l-1770 3 -54
30 c-179 99 -203 361 -45 481 73 56 -33 53 1884 53 l1775 1 50 -24z"/>
</g>
</svg>
