<?xml version="1.0" standalone="no"?><!DOCTYPE svg PUBLIC "-//W3C//DTD SVG 1.1//EN" "http://www.w3.org/Graphics/SVG/1.1/DTD/svg11.dtd"><svg t="1617068504676" class="icon" viewBox="0 0 1024 1024" version="1.1" xmlns="http://www.w3.org/2000/svg" p-id="3536" xmlns:xlink="http://www.w3.org/1999/xlink" width="200" height="200"><defs><style type="text/css"></style></defs><path d="M640 1024h192a32 32 0 0 0 32-32V544h128a32 32 0 0 0 22.624-54.624l-480-480a32 32 0 0 0-45.248 0l-480 480A32 32 0 0 0 32 544h128v448a32 32 0 0 0 32 32h192a32 32 0 0 0 32-32V768h192v224a32 32 0 0 0 32 32zM384 704a32 32 0 0 0-32 32v224h-128V512a32 32 0 0 0-32-32H109.248L512 77.264 914.752 480H832a32 32 0 0 0-32 32v448h-128V736a32 32 0 0 0-32-32H384z" p-id="3537"></path></svg>