<?xml version="1.0" standalone="no"?>
<!DOCTYPE svg PUBLIC "-//W3C//DTD SVG 20010904//EN"
 "http://www.w3.org/TR/2001/REC-SVG-20010904/DTD/svg10.dtd">
<svg version="1.0" xmlns="http://www.w3.org/2000/svg"
 width="1024.000000pt" height="1024.000000pt" viewBox="0 0 1024.000000 1024.000000"
 preserveAspectRatio="xMidYMid meet">

<g transform="translate(0.000000,1024.000000) scale(0.100000,-0.100000)"
fill="#000000" stroke="none">
<path d="M5008 10217 c-31 -14 -79 -43 -105 -65 -26 -22 -1128 -1122 -2449
-2444 -2176 -2178 -2403 -2408 -2424 -2458 -34 -79 -37 -151 -11 -229 27 -77
52 -113 111 -155 93 -68 72 -66 807 -66 l663 0 2 -2278 3 -2277 33 -68 c38
-77 92 -124 179 -157 54 -20 67 -20 1076 -18 l1022 3 67 33 c76 37 119 84 154
170 l24 57 0 1148 0 1147 960 0 960 0 2 -1158 3 -1157 33 -68 c38 -77 92 -124
179 -157 54 -20 67 -20 1076 -18 l1022 3 67 33 c76 37 119 84 154 170 l24 57
0 2268 0 2267 663 0 c589 0 669 2 713 16 58 20 130 70 161 112 37 50 66 150
61 212 -9 124 156 -48 -2490 2603 -2244 2247 -2438 2439 -2493 2464 -85 38
-171 42 -247 10z m1712 -7202 c-7 -8 -16 -15 -20 -15 -4 0 -10 7 -14 15 -4 11
2 15 21 15 21 0 24 -2 13 -15z m25 -2355 c18 -19 17 -20 -3 -20 -15 0 -22 6
-22 20 0 11 2 20 3 20 2 0 12 -9 22 -20z"/>
</g>
</svg>
