<?xml version="1.0" standalone="no"?>
<!DOCTYPE svg PUBLIC "-//W3C//DTD SVG 20010904//EN"
 "http://www.w3.org/TR/2001/REC-SVG-20010904/DTD/svg10.dtd">
<svg version="1.0" xmlns="http://www.w3.org/2000/svg"
 width="834.000000pt" height="834.000000pt" viewBox="0 0 834.000000 834.000000"
 preserveAspectRatio="xMidYMid meet">

<g transform="translate(0.000000,834.000000) scale(0.100000,-0.100000)"
fill="#000000" stroke="none">
<path d="M3913 7620 c-40 -16 -43 -38 -43 -314 l0 -266 -1469 0 c-1613 0
-1510 4 -1591 -60 -22 -18 -51 -55 -67 -88 l-28 -57 0 -2175 0 -2175 23 -47
c26 -53 87 -112 141 -136 33 -16 164 -17 1514 -20 l1478 -2 -3 -130 -3 -129
-670 -439 c-456 -299 -674 -448 -683 -465 -16 -33 -17 -31 128 -258 115 -179
148 -219 179 -219 10 0 301 186 647 413 346 227 645 423 666 435 l36 22 659
-432 c362 -237 669 -434 683 -436 14 -2 32 3 41 10 20 16 270 406 277 430 2
10 -2 28 -10 41 -9 12 -317 220 -687 462 l-671 440 0 127 0 128 1478 2 c1476
3 1477 3 1522 24 25 11 64 41 87 67 79 86 73 -107 73 2292 0 2415 7 2209 -79
2295 -87 87 47 80 -1613 80 l-1468 0 0 274 0 275 -26 20 c-25 20 -39 21 -263
20 -130 0 -246 -4 -258 -9z m2029 -1877 c140 -139 168 -172 168 -196 0 -25
-129 -159 -922 -958 -508 -512 -935 -937 -950 -945 -15 -8 -33 -14 -40 -14 -7
0 -176 163 -375 362 l-363 363 -423 -423 c-371 -370 -426 -422 -452 -422 -26
0 -55 24 -198 168 -140 141 -167 173 -167 198 0 25 81 109 603 631 564 565
604 603 637 603 32 0 60 -25 392 -357 l358 -358 758 758 c585 585 763 757 781
757 18 0 68 -43 193 -167z"/>
</g>
</svg>
