<?xml version="1.0" standalone="no"?>
<!DOCTYPE svg PUBLIC "-//W3C//DTD SVG 20010904//EN"
 "http://www.w3.org/TR/2001/REC-SVG-20010904/DTD/svg10.dtd">
<svg version="1.0" xmlns="http://www.w3.org/2000/svg"
 width="225.000000pt" height="225.000000pt" viewBox="0 0 225.000000 225.000000"
 preserveAspectRatio="xMidYMid meet">

<g transform="translate(0.000000,225.000000) scale(0.100000,-0.100000)"
fill="#000000" stroke="none">
<path d="M981 2084 c-143 -38 -290 -161 -355 -296 -46 -95 -60 -170 -53 -278
10 -148 57 -249 168 -359 l78 -78 -57 -23 c-144 -58 -299 -170 -389 -283 -110
-135 -169 -264 -209 -455 -24 -114 -22 -154 8 -164 17 -7 1899 1 1917 8 11 3
13 20 7 82 -20 244 -159 505 -351 661 -68 55 -199 132 -257 150 -21 7 -41 17
-44 23 -4 5 27 44 68 87 41 42 85 92 97 112 57 97 83 253 62 377 -33 200 -205
382 -411 437 -69 19 -209 18 -279 -1z m230 -118 c86 -19 134 -43 201 -105 196
-179 180 -499 -33 -656 -144 -106 -337 -112 -488 -15 -68 43 -113 95 -152 176
-32 65 -34 75 -34 179 0 103 2 114 32 178 60 126 166 213 295 241 82 18 100
18 179 2z m94 -991 c193 -37 425 -195 533 -364 64 -99 122 -246 122 -308 l0
-23 -835 0 c-798 0 -835 1 -835 18 0 10 11 55 24 100 80 275 339 515 621 575
91 20 273 21 370 2z"/>
</g>
</svg>
